<?xml version="1.0" encoding="UTF-8"?>
<svg width="100px" height="100px" viewBox="0 0 100 100" version="1.1" xmlns="http://www.w3.org/2000/svg" xmlns:xlink="http://www.w3.org/1999/xlink">
    <!-- Generator: Sketch 53 (72520) - https://sketchapp.com -->
    <title>Group 12 Copy</title>
    <desc>Created with Sketch.</desc>
    <defs>
        <linearGradient x1="30.7894513%" y1="13.1496415%" x2="50%" y2="86.8503585%" id="linearGradient-1">
            <stop stop-color="#2072FF" offset="0%"></stop>
            <stop stop-color="#0451E5" offset="100%"></stop>
        </linearGradient>
        <linearGradient x1="0%" y1="0.00279480823%" x2="100%" y2="99.9972052%" id="linearGradient-2">
            <stop stop-color="#FF5D05" offset="0%"></stop>
            <stop stop-color="#FF2327" offset="100%"></stop>
        </linearGradient>
        <linearGradient x1="30.7894513%" y1="0.00314529355%" x2="50%" y2="99.9968547%" id="linearGradient-3">
            <stop stop-color="#2072FF" offset="0%"></stop>
            <stop stop-color="#0451E5" offset="100%"></stop>
        </linearGradient>
        <linearGradient x1="42.6582087%" y1="0%" x2="50%" y2="100%" id="linearGradient-4">
            <stop stop-color="#2072FF" offset="0%"></stop>
            <stop stop-color="#0451E5" offset="100%"></stop>
        </linearGradient>
        <linearGradient x1="71.5458417%" y1="103.695284%" x2="2.36468689%" y2="45.9444315%" id="linearGradient-5">
            <stop stop-color="#9FD6FF" offset="0%"></stop>
            <stop stop-color="#D4E8F9" offset="100%"></stop>
        </linearGradient>
        <linearGradient x1="30.7894513%" y1="48.3223258%" x2="50%" y2="51.6776742%" id="linearGradient-6">
            <stop stop-color="#2072FF" offset="0%"></stop>
            <stop stop-color="#0451E5" offset="100%"></stop>
        </linearGradient>
        <linearGradient x1="100%" y1="50.6996745%" x2="2.36468689%" y2="49.8688009%" id="linearGradient-7">
            <stop stop-color="#9FD6FF" offset="0%"></stop>
            <stop stop-color="#D4E8F9" offset="100%"></stop>
        </linearGradient>
    </defs>
    <g id="Page-1" stroke="none" stroke-width="1" fill="none" fill-rule="evenodd">
        <g id="Group-12-Copy" fill-rule="nonzero">
            <polygon id="Path" fill="url(#linearGradient-1)" points="49.8727076 44.7677613 34.4979517 43.9826965 23.7664455 49.7512816 22.1459621 65.8981324 28.8956873 77.9197693 33.9608423 89.9284363 48.5825771 91.5176391 66.8771021 89.9284363 71.6538662 76.6113281 77.5162927 62.0918273 73.9571802 50.9628297 68.4617275 44.7677613"></polygon>
            <path d="M63.5247462,9.32617187 C63.5247462,8.14208984 62.3879664,7.28912344 61.2511867,7.62023926 L56.8139308,8.91265859 C55.4681056,9.30480957 54.2199367,8.05664062 54.6120875,6.71081543 L55.904507,2.27355957 C56.2356226,1.13677969 55.3826564,-2.06057393e-13 54.1985744,-2.06057393e-13 L45.5476039,-2.06057393e-13 C44.3635218,-2.06057393e-13 43.5113185,1.13677969 43.8416712,2.27355957 L45.1340908,6.71081543 C45.5262416,8.05664062 44.2780726,9.30480957 42.9322474,8.91265859 L38.4949916,7.62023926 C37.3582119,7.28912344 36.221432,8.14208984 36.221432,9.32617187 L36.221432,17.9771424 C36.221432,19.1612244 37.3582119,20.0134277 38.4949916,19.6823121 L42.9322474,18.3898926 C44.2780726,17.9985047 45.5262416,19.2466736 45.1340908,20.5924988 L43.8416712,25.0297547 C43.5105556,26.1665344 44.3635218,27.3025512 45.5476039,27.3025512 L54.1985744,27.3025512 C55.3826564,27.3025512 56.2356226,26.1665344 55.904507,25.0297547 L54.6120875,20.5924988 C54.2199367,19.2466736 55.4681056,17.9977418 56.8139308,18.3898926 L61.2511867,19.6823121 C62.3879664,20.0134277 63.5247462,19.1612244 63.5247462,17.9771424 L63.5247462,9.32617187 Z" id="Path" fill="url(#linearGradient-2)"></path>
            <path d="M62.0003931,35.5865479 C62.0003931,42.2843934 56.5705531,47.7134705 49.8734705,47.7134705 C43.1756251,47.7134705 37.7457849,42.2843934 37.7457849,35.5865479 C37.7457849,28.8887023 43.1756251,23.4596252 49.8734705,23.4596252 C56.5705531,23.4596252 62.0003931,28.8887023 62.0003931,35.5865479 Z" id="Path" fill="url(#linearGradient-3)"></path>
            <path d="M37.2834437,89.0342713 L35.1983302,88.4170531 C34.8443263,88.3117676 34.5399134,88.117218 34.294247,87.839508 C27.6208156,80.2803039 23.3269923,72.2541809 21.8774074,64.6278381 C20.9443324,59.7167969 21.2357751,55.1269531 22.7204554,51.3549805 L24.4576685,46.9413758 L19.7243921,47.2373963 L19.6572535,47.240448 C19.5649378,47.2450256 19.4733851,47.2496033 19.3825953,47.2572326 C15.4114955,47.5822449 12.1278041,49.2462158 9.88476206,52.0698547 C7.18471929,55.4710389 6.29131733,60.2783203 7.37011362,65.6066895 C8.65032593,71.9284059 12.6099818,78.7025451 18.8203089,85.1982117 C19.1811792,85.5751037 19.3726771,86.0702516 19.361233,86.5913391 C19.3497888,87.1124268 19.1354029,87.5976562 18.7585109,87.9585266 C18.6829798,88.030243 18.593716,88.1004334 18.4846156,88.1729125 L15.8158533,89.9490355 L20.7368128,96.4576721 L37.5352138,96.4576721 L37.2834437,89.0342713 Z" id="Path" fill="url(#linearGradient-4)"></path>
            <path d="M62.4627345,89.0342713 L64.547848,88.4170531 C64.9026148,88.3117676 65.2062648,88.117218 65.4519312,87.839508 C72.1253626,80.2803039 76.4191859,72.2541809 77.8687708,64.6278381 C78.8018458,59.7167969 78.5104029,55.1269531 77.0257228,51.3549805 L75.2885095,46.9413758 L80.0217861,47.2373963 L80.0889248,47.240448 C80.1812404,47.2450256 80.2727931,47.2496033 80.363583,47.2572326 C84.3346828,47.5822449 87.6191371,49.2462158 89.8614162,52.0698547 C92.5614587,55.4710389 93.4548609,60.2783203 92.3760646,65.6066895 C91.0958521,71.9284059 87.1361964,78.7025451 80.9258693,85.1982117 C80.5657619,85.5751037 80.3735011,86.0702516 80.3849451,86.5913391 C80.3971521,87.1124268 80.6107751,87.5976562 80.9876673,87.9585266 C81.0631984,88.030243 81.1524623,88.1004334 81.2615626,88.1729125 L83.9303248,89.9490355 L79.0093654,96.4576721 L62.2109644,96.4576721 L62.4627345,89.0342713 Z" id="Path" fill="url(#linearGradient-4)"></path>
            <path d="M44.9029201,50.6818822 C38.7099922,47.7060821 33.4778959,47.9218695 30.6184046,51.3801574 C28.4417384,54.0115355 27.7344935,58.3694457 28.6782496,63.3354187 C29.5274013,67.8024293 32.0908779,74.8847961 39.4837611,83.2572937 C41.3003199,85.3149414 41.1050074,88.4559631 39.0473597,90.2725219 C38.1020777,91.1071777 36.9286769,91.5176391 35.7598537,91.5176391 C34.3835109,91.5176391 33.0147974,90.9492492 32.0321314,89.8368836 C24.9993556,81.8717957 20.4629175,73.3497619 18.9126246,65.1916504 C17.8616692,59.6604174 18.2244602,54.5326949 19.9134522,50.2444448 C19.8180567,50.2502588 19.7229908,50.257023 19.6282619,50.26474 C16.5108912,50.5195617 13.9588587,51.7929078 12.2491115,53.9466857 C10.111355,56.6383361 9.42928726,60.5667113 10.3287927,65.007782 C11.4953273,70.7687379 15.1864283,77.0294189 21.0023158,83.1123352 C22.8989833,85.0967406 22.8287927,88.2431031 20.8443873,90.1397705 C19.8815578,91.0606385 18.644833,91.5176391 17.4103968,91.5176391 C16.1011927,91.5176391 14.7935146,91.0026551 13.817715,89.981842 C6.70177866,82.5393676 2.12643081,74.5857238 0.586056005,66.9799805 C-0.905490675,59.6168518 0.472378075,52.7923584 4.46407729,47.7653504 C7.8782314,43.4654236 12.9754298,40.8348084 18.818783,40.3572082 C21.6367275,40.1269297 24.5728655,40.3974959 27.5505153,41.1479434 C31.868625,38.6226507 37.7757123,37.653854 44.9349118,39.9900718 C45.2163489,37.5120059 47.3201519,35.5865479 49.8734705,35.5865479 C52.4260818,35.5865479 54.5298367,37.5120092 54.8112674,39.9900782 C61.9700096,37.654029 67.8768518,38.6226045 72.1951376,41.1477748 C75.1726987,40.3974068 78.1090278,40.1270203 80.9273951,40.3579711 C86.7699855,40.8355713 91.8679468,43.4661865 95.2821009,47.7653504 C99.2738001,52.7923584 100.651669,59.6168518 99.1601222,66.9799805 C97.6205103,74.5849609 93.0451625,82.5393676 85.9292261,89.981842 C84.9526636,91.003418 83.6449855,91.5176391 82.3357814,91.5176391 C81.1013453,91.5176391 79.8653833,91.0606385 78.9017908,90.1397705 C76.9181482,88.2431031 76.8471949,85.0967406 78.7446253,83.1123352 C84.5605128,77.0294189 88.2508509,70.7687379 89.4181482,65.007782 C90.316891,60.5667113 89.6348232,56.6383361 87.4970667,53.9466857 C85.7873195,51.7929078 83.23605,50.5195617 80.1179164,50.26474 C80.0233473,50.2570178 79.9284427,50.2502478 79.8332097,50.2444273 C81.5220676,54.5324798 81.8845311,59.6603013 80.8335537,65.1916504 C79.2832607,73.350525 74.7468226,81.8725586 67.7140466,89.8368836 C66.7321437,90.9492492 65.3626673,91.5176391 63.9863246,91.5176391 C62.8175013,91.5176391 61.6441005,91.1079406 60.6988185,90.273285 C58.6411708,88.4559631 58.4458583,85.3157043 60.26318,83.2580566 C67.6553003,74.8847961 70.21954,67.8024293 71.0679287,63.3354187 C72.0116847,58.3694457 71.3044398,54.0122986 69.1285365,51.3801574 C66.2682876,47.9217705 61.0358966,47.7066684 54.8432582,50.6823426 L54.8432582,86.5470887 C54.8432582,89.2921447 52.6177638,91.5176391 49.8734705,91.5176391 C47.1284144,91.5176391 44.9029201,89.2921447 44.9029201,86.5470887 L44.9029201,50.6818822 Z" id="Combined-Shape" fill="url(#linearGradient-5)"></path>
            <path d="M91.6726343,83.1123352 L8.07278081,83.1123352 C5.70003921,83.1123352 3.77590581,85.0364686 3.77590581,87.4092102 L3.77590581,95.703125 C3.77590581,98.0766297 5.70003921,100 8.07278081,100 L91.6726343,100 C94.046139,100 95.9695093,98.0766297 95.9695093,95.703125 L95.9695093,87.4092102 C95.9695093,85.0364686 94.046139,83.1123352 91.6726343,83.1123352 L91.6726343,83.1123352 Z" id="Path" fill="url(#linearGradient-6)"></path>
            <path d="M53.7171595,91.5176391 C53.7171595,93.6401367 51.9959681,95.3613281 49.8734705,95.3613281 C47.7502101,95.3613281 46.0297816,93.6401367 46.0297816,91.5176391 C46.0297816,89.3943787 47.7502101,87.6739502 49.8734705,87.6739502 C51.9959681,87.6739502 53.7171595,89.3943787 53.7171595,91.5176391 Z M70.8504908,91.5176391 C70.8504908,93.6401367 69.1300623,95.3613281 67.0068019,95.3613281 C64.8843042,95.3613281 63.1631128,93.6401367 63.1631128,91.5176391 C63.1631128,89.3943787 64.8843042,87.6739502 67.0068019,87.6739502 C69.1300623,87.6739502 70.8504908,89.3943787 70.8504908,91.5176391 Z M87.9845851,91.5176391 C87.9845851,93.6401367 86.2633937,95.3613281 84.140896,95.3613281 C82.0176357,95.3613281 80.2972072,93.6401367 80.2972072,91.5176391 C80.2972072,89.3943787 82.0176357,87.6739502 84.140896,87.6739502 C86.2633937,87.6739502 87.9845851,89.3943787 87.9845851,91.5176391 Z M36.5830654,91.5176391 C36.5830654,93.6401367 34.861874,95.3613281 32.7393763,95.3613281 C30.6168787,95.3613281 28.8956873,93.6401367 28.8956873,91.5176391 C28.8956873,89.3943787 30.6168787,87.6739502 32.7393763,87.6739502 C34.861874,87.6739502 36.5830654,89.3943787 36.5830654,91.5176391 Z M19.4497339,91.5176391 C19.4497339,93.6401367 17.7285425,95.3613281 15.6060451,95.3613281 C13.4827845,95.3613281 11.762356,93.6401367 11.762356,91.5176391 C11.762356,89.3943787 13.4827845,87.6739502 15.6060451,87.6739502 C17.7285425,87.6739502 19.4497339,89.3943787 19.4497339,91.5176391 Z" id="Combined-Shape" fill="url(#linearGradient-7)"></path>
        </g>
    </g>
</svg>