<?xml version="1.0" encoding="UTF-8"?>
<svg width="60px" height="60px" viewBox="0 0 60 60" version="1.1" xmlns="http://www.w3.org/2000/svg" xmlns:xlink="http://www.w3.org/1999/xlink">
    <!-- Generator: Sketch 53 (72520) - https://sketchapp.com -->
    <title>Group 8 Copy</title>
    <desc>Created with Sketch.</desc>
    <defs>
        <linearGradient x1="100%" y1="118.786444%" x2="2.36468689%" y2="37.1015453%" id="linearGradient-1">
            <stop stop-color="#9FD6FF" offset="0%"></stop>
            <stop stop-color="#D4E8F9" offset="100%"></stop>
        </linearGradient>
        <linearGradient x1="30.7894513%" y1="0%" x2="50%" y2="100%" id="linearGradient-2">
            <stop stop-color="#2072FF" offset="0%"></stop>
            <stop stop-color="#0451E5" offset="100%"></stop>
        </linearGradient>
        <linearGradient x1="54.1180623%" y1="220.774133%" x2="40.8954503%" y2="37.1015453%" id="linearGradient-3">
            <stop stop-color="#9FD6FF" offset="0%"></stop>
            <stop stop-color="#D4E8F9" offset="100%"></stop>
        </linearGradient>
    </defs>
    <g id="Page-1" stroke="none" stroke-width="1" fill="none" fill-rule="evenodd">
        <g id="Group-8-Copy" transform="translate(0.000000, 0.000000)" fill-rule="nonzero">
            <path d="M17.6953125,15.3232777 L21.2986021,18.9265672 L18.8130552,21.4121141 L15.2134411,17.8125 L7.1484375,17.8125 L7.1484375,7.265625 L17.6953125,7.265625 L17.6953125,15.3232777 Z M17.6953125,44.9037464 L17.6953125,52.96875 L7.1484375,52.96875 L7.1484375,42.421875 L15.2060902,42.421875 L18.8158594,38.8121058 L21.3014062,41.2976527 L17.6953125,44.9037464 Z M44.7986979,42.421875 L52.8515625,42.421875 L52.8515625,52.96875 L42.3046875,52.96875 L42.3046875,44.8989584 L38.7007291,41.295 L41.186276,38.8094531 L44.7986979,42.421875 Z M44.7812536,17.8125 L41.184175,21.4095786 L38.6986281,18.9240318 L42.3046875,15.3179723 L42.3046875,7.265625 L52.8515625,7.265625 L52.8515625,17.8125 L44.7812536,17.8125 Z M49.453125,28.359375 L49.453125,24.84375 L60,24.84375 L60,35.390625 L49.453125,35.390625 L49.453125,31.875 L44.1796875,31.875 L44.1796875,28.359375 L49.453125,28.359375 Z M10.546875,28.359375 L15.9375,28.359375 L15.9375,31.875 L10.546875,31.875 L10.546875,35.390625 L0,35.390625 L0,24.84375 L10.546875,24.84375 L10.546875,28.359375 Z M31.7578125,49.453125 L35.2734375,49.453125 L35.2734375,60 L24.7265625,60 L24.7265625,49.453125 L28.2421875,49.453125 L28.2421875,44.1796875 L31.7578125,44.1796875 L31.7578125,49.453125 Z M31.7578125,10.546875 L31.7578125,15.8203125 L28.2421875,15.8203125 L28.2421875,10.546875 L24.7265625,10.546875 L24.7265625,0 L35.2734375,0 L35.2734375,10.546875 L31.7578125,10.546875 Z" id="Combined-Shape" fill="url(#linearGradient-1)"></path>
            <path d="M45.9375,30 C45.9375,38.7878906 38.7878906,45.9375 30,45.9375 C21.2121094,45.9375 14.0625,38.7878906 14.0625,30 C14.0625,21.2121094 21.2121094,14.0625 30,14.0625 C38.7878906,14.0625 45.9375,21.2121094 45.9375,30 Z" id="Path" fill="url(#linearGradient-2)"></path>
            <path d="M35.2804687,33.5566406 C35.2804687,35.8511719 33.8074219,37.8070313 31.7578125,38.5300781 L31.7578125,42.1875 L28.2421875,42.1875 L28.2421875,38.5242188 C26.1960937,37.790625 24.7265625,35.8230469 24.7265625,33.515625 L28.2421875,33.515625 C28.2421875,34.4882812 29.0472656,35.3109375 30,35.3144531 L30.0070312,35.3144531 C30.9761719,35.3144531 31.7648437,34.5257812 31.7648437,33.5566406 C31.7648437,32.5875 30.9761719,31.7988281 30.0070312,31.7988281 L30,31.7988281 C27.0960937,31.7953125 24.7335938,29.4316406 24.7335938,26.5253906 C24.7335938,24.2367188 26.1996094,22.284375 28.2421875,21.5566406 L28.2421875,18.046875 L31.7578125,18.046875 L31.7578125,21.5507812 C33.8039062,22.2691406 35.2734375,24.2085938 35.2734375,26.484375 L31.7578125,26.484375 C31.7578125,25.5222656 30.9890625,24.7675781 30.0070312,24.7675781 L30,24.7675781 C29.034375,24.7710937 28.2492187,25.5585938 28.2492187,26.5253906 C28.2492187,27.4921875 29.034375,28.2796875 30,28.2832031 L30.0070312,28.2832031 C32.915625,28.2832031 35.2804687,30.6492187 35.2804687,33.5566406 Z" id="Path" fill="url(#linearGradient-3)"></path>
        </g>
    </g>
</svg>