<?xml version="1.0" encoding="UTF-8"?>
<svg width="80px" height="80px" viewBox="0 0 80 80" version="1.1" xmlns="http://www.w3.org/2000/svg" xmlns:xlink="http://www.w3.org/1999/xlink">
    <!-- Generator: Sketch 53 (72520) - https://sketchapp.com -->
    <title>Group 2 Copy 2</title>
    <desc>Created with Sketch.</desc>
    <defs>
        <linearGradient x1="-110.855909%" y1="-7.76346291%" x2="106.844805%" y2="70.5963132%" id="linearGradient-1">
            <stop stop-color="#9FD6FF" offset="0%"></stop>
            <stop stop-color="#D4E8F9" offset="100%"></stop>
        </linearGradient>
        <linearGradient x1="30.7894513%" y1="46.2789928%" x2="50%" y2="53.7210072%" id="linearGradient-2">
            <stop stop-color="#2072FF" offset="0%"></stop>
            <stop stop-color="#0451E5" offset="100%"></stop>
        </linearGradient>
    </defs>
    <g id="Page-1" stroke="none" stroke-width="1" fill="none" fill-rule="evenodd">
        <g id="Group-2-Copy-2" fill-rule="nonzero">
            <polygon id="Path" fill="url(#linearGradient-1)" points="80 40 74.5307813 30.7465625 74.6464062 19.994375 65.2729688 14.7271875 60.0057812 5.35375 49.2534375 5.46921875 40 0 30.7464062 5.46921875 19.9942187 5.35375 14.7270312 14.7271875 5.35359375 19.9942187 5.4690625 30.7465625 0 40 5.4690625 49.2535938 5.3534375 60.0057812 14.726875 65.2729688 19.9940625 74.6464062 30.7465625 74.5309375 40 80 49.2534375 74.5309375 60.005625 74.6464062 65.2728125 65.273125 74.64625 60.0059375 74.5307813 49.2534375"></polygon>
            <path d="M56.4976563,27.6298437 C52.5596875,22.3875 46.5465625,19.3807812 40,19.3807812 C33.4534375,19.3807812 27.4401563,22.3873437 23.5023438,27.6298437 L19.7460938,24.808125 C22.0553125,21.73375 25.0814063,19.1864062 28.496875,17.4414062 C32.0803125,15.6107812 35.9503125,14.6825 40,14.6825 C44.0496875,14.6825 47.9196875,15.610625 51.503125,17.4414062 C54.91875,19.1864062 57.9448438,21.73375 60.2540625,24.808125 L56.4976563,27.6298437 Z" id="Path" fill="#FF2327"></path>
            <path d="M40,65.3176563 C35.9504687,65.3176563 32.0801562,64.3895313 28.496875,62.55875 C25.08125,60.81375 22.0553125,58.2664063 19.7459375,55.1920313 L23.5023437,52.3703125 C27.4401562,57.6126563 33.453125,60.6195313 40,60.6195313 C46.5465625,60.6195313 52.5596875,57.6128125 56.4976562,52.3703125 L60.2539062,55.1920313 C57.9446875,58.2664063 54.9185937,60.81375 51.5029687,62.55875 C47.9196875,64.389375 44.0495312,65.3176563 40,65.3176563 Z" id="Path" fill="#FF2327"></path>
            <path d="M28.9207812,33.2582812 L28.9207812,46.741875 L25.1839062,46.741875 L20.0601562,40.6165625 L20.0601562,46.741875 L15.6298437,46.741875 L15.6298437,33.2582812 L19.3667187,33.2582812 L24.490625,39.3835937 L24.490625,33.2582812 L28.9207812,33.2582812 Z M41.9417187,43.3132812 L41.9417187,46.741875 L30.73125,46.741875 L30.73125,33.2582812 L41.6914062,33.2582812 L41.6914062,36.686875 L35.2,36.686875 L35.2,38.2664062 L40.9015625,38.2664062 L40.9015625,41.5409375 L35.2,41.5409375 L35.2,43.313125 L41.9417187,43.3132812 Z M65.0564063,33.2582812 L60.7417188,46.741875 L55.8684375,46.741875 L53.691875,39.5378125 L51.3996875,46.741875 L46.5264063,46.741875 L42.2117188,33.2582812 L46.8923438,33.2582812 L49.2423438,40.9245312 L51.7271875,33.2582812 L55.9070313,33.2582812 L58.2570313,41.0209375 L60.741875,33.2582812 L65.0564063,33.2582812 Z" id="Combined-Shape" fill="url(#linearGradient-2)"></path>
            <rect id="Rectangle" fill="#055FFB" x="39.999375" y="38.2657813" width="1" height="3.27453125"></rect>
            <rect id="Rectangle" fill="#055FFB" x="39.999375" y="43.313125" width="1.941875" height="3.42859375"></rect>
            <rect id="Rectangle" fill="#055FFB" x="39.999375" y="33.2576562" width="1.69140625" height="3.42859375"></rect>
        </g>
    </g>
</svg>