<?xml version="1.0" encoding="UTF-8"?>
<svg width="82px" height="80px" viewBox="0 0 82 80" version="1.1" xmlns="http://www.w3.org/2000/svg" xmlns:xlink="http://www.w3.org/1999/xlink">
    <!-- Generator: Sketch 53 (72520) - https://sketchapp.com -->
    <title>Group 10 Copy</title>
    <desc>Created with Sketch.</desc>
    <defs>
        <linearGradient x1="35.7579806%" y1="0%" x2="50%" y2="100%" id="linearGradient-1">
            <stop stop-color="#2072FF" offset="0%"></stop>
            <stop stop-color="#0451E5" offset="100%"></stop>
        </linearGradient>
        <linearGradient x1="87.0674024%" y1="118.786444%" x2="14.6856537%" y2="37.1015453%" id="linearGradient-2">
            <stop stop-color="#9FD6FF" offset="0%"></stop>
            <stop stop-color="#D4E8F9" offset="100%"></stop>
        </linearGradient>
        <linearGradient x1="2.88466525%" y1="0%" x2="97.1153348%" y2="100%" id="linearGradient-3">
            <stop stop-color="#FF5D05" offset="0%"></stop>
            <stop stop-color="#FF2327" offset="100%"></stop>
        </linearGradient>
    </defs>
    <g id="Page-1" stroke="none" stroke-width="1" fill="none" fill-rule="evenodd">
        <g id="Group-10-Copy" fill-rule="nonzero">
            <polygon id="Path" fill="url(#linearGradient-1)" points="33.7903289 23.9043825 33.7903289 66.9322709 59.2050152 66.9322709 72.2248262 79.8879482 72.2248262 66.9322709 81.9935943 66.9322709 81.9935943 23.9043825"></polygon>
            <polygon id="Path" fill="#C6E2FA" points="55.4097336 52.5896414 60.2140458 52.5896414 60.2140458 57.3705179 55.4097336 57.3705179"></polygon>
            <path d="M65.0183579,40.6374502 C65.0183579,43.3148655 63.5288961,45.753237 61.1749082,46.995767 C60.5981406,47.2827441 60.2140458,48.0639939 60.2140458,48.9243028 L55.4097336,48.9243028 C55.4097336,46.7729084 56.2742597,44.7970617 57.8118897,43.5059761 C58.1484417,43.218999 58.5325365,42.932022 58.9166313,42.7409114 C59.7336146,42.3586902 60.2140458,41.5456923 60.2140458,40.6374502 C60.2140458,39.3463646 59.2050152,38.2949452 57.8118897,38.247012 C56.4187642,38.247012 55.4097336,39.3463646 55.4097336,40.6374502 L50.6054215,40.6374502 C50.6054215,36.812749 53.5843451,33.5613794 57.8118897,33.5140687 C61.9918914,33.5140687 65.0183579,36.812749 65.0183579,40.6374502 L65.0183579,40.6374502 Z" id="Path" fill="#C6E2FA"></path>
            <polygon id="Path" fill="url(#linearGradient-2)" points="0 -8.52651283e-14 0 43.0278884 9.76876806 43.0278884 9.76876806 55.9841882 22.7885791 43.0278884 48.2032654 43.0278884 48.2032654 -8.52651283e-14"></polygon>
            <path d="M26.5838606,14.7487575 C27.4292513,15.0449303 28.2017936,15.493238 28.868507,16.060861 L33.3818373,13.4673804 L35.7839934,17.6083168 L31.2686855,20.2029338 C31.3471698,20.6278463 31.3881728,21.0660179 31.3881728,21.5139442 C31.3881728,21.9618529 31.3471602,22.4000206 31.2686578,22.8249388 L35.7839934,25.4195716 L33.3818373,29.560508 L28.8683615,26.9669438 C28.2016812,27.5345515 27.4291898,27.9828712 26.5838606,28.2790652 L26.5838606,33.4661355 L21.7795485,33.4661355 L21.7795485,28.2790652 C20.9342193,27.9828712 20.1617279,27.5345515 19.4950477,26.9669438 L14.9815718,29.560508 L12.5794158,25.4195716 L17.0947513,22.8249388 C17.0162489,22.4000206 16.9752363,21.9618529 16.9752363,21.5139442 C16.9752363,21.0660179 17.0162393,20.6278463 17.0947236,20.2029338 L12.5794158,17.6083168 L14.9815718,13.4673804 L19.4949021,16.060861 C20.1616155,15.493238 20.9341578,15.0449303 21.7795485,14.7487575 L21.7795485,9.56175299 L26.5838606,9.56175299 L26.5838606,14.7487575 Z" id="Combined-Shape" fill="url(#linearGradient-3)"></path>
            <path d="M26.5838606,21.5139442 C26.5838606,22.8523407 25.5272873,23.9043825 24.1817046,23.9043825 C22.8361218,23.9043825 21.7795485,22.8523407 21.7795485,21.5139442 C21.7795485,20.1749253 22.8361218,19.123506 24.1817046,19.123506 C25.5272873,19.123506 26.5838606,20.1749253 26.5838606,21.5139442 Z" id="Path" fill="#C6E2FA"></path>
        </g>
    </g>
</svg>