<?xml version="1.0" encoding="UTF-8"?>
<svg width="85px" height="80px" viewBox="0 0 85 80" version="1.1" xmlns="http://www.w3.org/2000/svg" xmlns:xlink="http://www.w3.org/1999/xlink">
    <!-- Generator: Sketch 53 (72520) - https://sketchapp.com -->
    <title>Group 2 Copy</title>
    <desc>Created with Sketch.</desc>
    <defs>
        <linearGradient x1="30.7894513%" y1="0.235017301%" x2="50%" y2="99.7649827%" id="linearGradient-1">
            <stop stop-color="#2072FF" offset="0%"></stop>
            <stop stop-color="#0451E5" offset="100%"></stop>
        </linearGradient>
        <linearGradient x1="0%" y1="0.235017301%" x2="100%" y2="99.7649827%" id="linearGradient-2">
            <stop stop-color="#FF5D05" offset="0%"></stop>
            <stop stop-color="#FF2327" offset="100%"></stop>
        </linearGradient>
        <linearGradient x1="-14.512233%" y1="46.0762257%" x2="106.844805%" y2="70.4995034%" id="linearGradient-3">
            <stop stop-color="#9FD6FF" offset="0%"></stop>
            <stop stop-color="#D4E8F9" offset="100%"></stop>
        </linearGradient>
        <linearGradient x1="0%" y1="31.7935396%" x2="100%" y2="86.4710223%" id="linearGradient-4">
            <stop stop-color="#2A38EB" offset="0%"></stop>
            <stop stop-color="#01066E" offset="100%"></stop>
        </linearGradient>
    </defs>
    <g id="Page-1" stroke="none" stroke-width="1" fill="none" fill-rule="evenodd">
        <g id="Group-2-Copy" fill-rule="nonzero">
            <ellipse id="Oval" fill="url(#linearGradient-1)" cx="58.6111596" cy="53.9547325" rx="25.8674489" ry="25.8065844"></ellipse>
            <ellipse id="Oval" fill="url(#linearGradient-2)" cx="42.1617556" cy="25.8065844" rx="25.8674489" ry="25.8065844"></ellipse>
            <ellipse id="Oval" fill="url(#linearGradient-3)" cx="25.8674489" cy="53.9547325" rx="25.8674489" ry="25.8065844"></ellipse>
            <path d="M65.8377106,30.498107 C65.8377106,30.498107 49.2728084,28.2404938 42.2393043,33.9739918 C35.1642208,28.2062551 18.8058953,30.498107 18.8058953,30.498107 C18.8058953,30.498107 24.4799868,46.7499588 33.0522556,49.9665844 C31.6558836,58.8785185 42.1574656,70.38107 42.2394693,70.38107 C42.3218029,70.38107 52.8370797,58.8381893 51.4167831,49.9079835 C59.9293229,46.6511934 65.8377106,30.498107 65.8377106,30.498107 Z" id="Path" fill="#FFFFFF"></path>
            <path d="M42.2393043,33.9739918 C44.5972805,35.8962963 46.6536416,38.2681481 48.266655,41.0553086 C49.8981481,43.8747325 50.9343311,46.8737449 51.4167831,49.9079835 C59.9291579,46.6510288 66.2774284,39.0363786 67.7158747,29.8001646 C58.9989033,26.519177 49.2726435,28.2404938 42.2393043,33.9739918 Z" id="Path" fill="url(#linearGradient-4)"></path>
            <path d="M51.4171131,49.9079835 C48.5418705,51.0080658 45.4206169,51.6126749 42.1573006,51.6126749 C38.9525584,51.6126749 35.884929,51.0299588 33.0524206,49.966749 C31.6560486,58.8786831 35.0455878,68.0854321 42.2396343,73.9392593 C49.4495205,68.0725926 52.8374097,58.8381893 51.4171131,49.9079835 Z" id="Path" fill="#90BFF2"></path>
            <path d="M33.0522556,49.9665844 C33.5307477,46.912428 34.5699006,43.8928395 36.2122836,41.0553086 C37.824967,38.2681481 39.8814931,35.8966255 42.2394693,33.9739918 C35.1643858,28.2062551 25.3647022,26.4982716 16.6081315,29.8582716 C18.0729773,39.1242798 24.4801518,46.7499588 33.0522556,49.9665844 Z" id="Path" fill="#FF6F72"></path>
            <path d="M42.2393043,33.9739918 C39.8813281,35.8962963 37.825132,38.2681481 36.2121186,41.0553086 C34.5700656,43.8931687 33.5307477,46.9127572 33.0520906,49.9665844 C35.884599,51.0296296 38.9522284,51.6125103 42.1569706,51.6125103 C45.4202869,51.6125103 48.5415405,51.0082305 51.4167831,49.9078189 C50.9340011,46.8734156 49.8981481,43.8744033 48.266655,41.055144 C46.6539716,38.2681481 44.5974455,35.8966255 42.2393043,33.9739918 Z" id="Path" fill="#FFFFFF"></path>
        </g>
    </g>
</svg>