<?xml version="1.0" encoding="UTF-8"?>
<svg width="43px" height="60px" viewBox="0 0 43 60" version="1.1" xmlns="http://www.w3.org/2000/svg" xmlns:xlink="http://www.w3.org/1999/xlink">
    <!-- Generator: Sketch 53 (72520) - https://sketchapp.com -->
    <title>Group 9 Copy</title>
    <desc>Created with Sketch.</desc>
    <defs>
        <linearGradient x1="37.8038613%" y1="0%" x2="62.1961387%" y2="100%" id="linearGradient-1">
            <stop stop-color="#FF5D05" offset="0%"></stop>
            <stop stop-color="#FF2327" offset="100%"></stop>
        </linearGradient>
        <linearGradient x1="-14.512233%" y1="48.2711857%" x2="106.844805%" y2="59.0320776%" id="linearGradient-2">
            <stop stop-color="#9FD6FF" offset="0%"></stop>
            <stop stop-color="#D4E8F9" offset="100%"></stop>
        </linearGradient>
        <linearGradient x1="30.7894513%" y1="0%" x2="50%" y2="100%" id="linearGradient-3">
            <stop stop-color="#2072FF" offset="0%"></stop>
            <stop stop-color="#0451E5" offset="100%"></stop>
        </linearGradient>
        <linearGradient x1="44.2309929%" y1="38.0270729%" x2="65.4199659%" y2="59.3192617%" id="linearGradient-4">
            <stop stop-color="#9FD6FF" offset="0%"></stop>
            <stop stop-color="#D4E8F9" offset="100%"></stop>
        </linearGradient>
    </defs>
    <g id="Page-1" stroke="none" stroke-width="1" fill="none" fill-rule="evenodd">
        <g id="Group-9-Copy" fill-rule="nonzero">
            <path d="M26.5160156,16.0957031 C26.5160156,19.0042969 24.1511719,21.3691406 21.2425781,21.3691406 L21.2355469,21.3691406 C18.328125,21.365625 15.9621094,18.9832031 15.9621094,16.0546875 L19.4777344,16.0546875 C19.4777344,17.0273438 20.2828125,17.85 21.2355469,17.8535156 L21.2425781,17.8535156 C22.2117187,17.8535156 23.0003906,17.0648438 23.0003906,16.0957031 C23.0003906,15.1265625 22.2117187,14.3378906 21.2425781,14.3378906 L21.2355469,14.3378906 C18.3316406,14.334375 15.9691406,11.9707031 15.9691406,9.06445313 C15.9691406,6.77578125 17.4351562,4.8234375 19.4777344,4.09570313 L19.4777344,7.10542736e-15 L22.9933594,7.10542736e-15 L22.9933594,4.08984375 C25.0394531,4.80820313 26.5089844,6.74765625 26.5089844,9.0234375 L22.9933594,9.0234375 C22.9933594,8.06132813 22.2246094,7.30664063 21.2425781,7.30664063 L21.2355469,7.30664063 C20.2699219,7.31015625 19.4847656,8.09765625 19.4847656,9.06445313 C19.4847656,10.03125 20.2699219,10.81875 21.2355469,10.8222656 L21.2425781,10.8222656 C24.1511719,10.8222656 26.5160156,13.1882813 26.5160156,16.0957031 Z" id="Path" fill="url(#linearGradient-1)"></path>
            <polygon id="Path" fill="url(#linearGradient-2)" points="0 17.8125 15.9621094 37.7648437 15.9621094 45.9375 26.5089844 45.9375 26.5089844 37.7648437 42.4710937 17.8125"></polygon>
            <path d="M21.2355469,49.453125 C18.328125,49.453125 15.9621094,51.8191406 15.9621094,54.7265625 C15.9621094,57.6339844 18.328125,60 21.2355469,60 C24.1429688,60 26.5089844,57.6339844 26.5089844,54.7265625 C26.5089844,51.8191406 24.1429688,49.453125 21.2355469,49.453125 Z" id="Path" fill="url(#linearGradient-3)"></path>
            <path d="M8.93085938,7.265625 L12.4464844,7.265625 L12.4464844,14.296875 L8.93085938,14.296875 L8.93085938,7.265625 Z M30.0246094,7.265625 L33.5402344,7.265625 L33.5402344,14.296875 L30.0246094,14.296875 L30.0246094,7.265625 Z M1.89960938,3.75 L5.41523437,3.75 L5.41523437,10.78125 L1.89960938,10.78125 L1.89960938,3.75 Z M37.0558594,3.75 L40.5714844,3.75 L40.5714844,10.78125 L37.0558594,10.78125 L37.0558594,3.75 Z" id="Combined-Shape" fill="url(#linearGradient-4)"></path>
        </g>
    </g>
</svg>