<?xml version="1.0" encoding="UTF-8"?>
<svg width="98px" height="80px" viewBox="0 0 98 80" version="1.1" xmlns="http://www.w3.org/2000/svg" xmlns:xlink="http://www.w3.org/1999/xlink">
    <!-- Generator: Sketch 53 (72520) - https://sketchapp.com -->
    <title>Group 6 Copy</title>
    <desc>Created with Sketch.</desc>
    <defs>
        <linearGradient x1="50%" y1="0%" x2="50%" y2="100%" id="linearGradient-1">
            <stop stop-color="#2A38EB" offset="0%"></stop>
            <stop stop-color="#01066E" offset="100%"></stop>
        </linearGradient>
        <linearGradient x1="0%" y1="15.560646%" x2="100%" y2="84.439354%" id="linearGradient-2">
            <stop stop-color="#FF5D05" offset="0%"></stop>
            <stop stop-color="#FF2327" offset="100%"></stop>
        </linearGradient>
        <linearGradient x1="34.4988236%" y1="0%" x2="65.5011764%" y2="100%" id="linearGradient-3">
            <stop stop-color="#FF5D05" offset="0%"></stop>
            <stop stop-color="#FF2327" offset="100%"></stop>
        </linearGradient>
        <linearGradient x1="48.2564236%" y1="0%" x2="50%" y2="100%" id="linearGradient-4">
            <stop stop-color="#2072FF" offset="0%"></stop>
            <stop stop-color="#0451E5" offset="100%"></stop>
        </linearGradient>
        <linearGradient x1="0%" y1="43.810792%" x2="100%" y2="62.3981674%" id="linearGradient-5">
            <stop stop-color="#2A38EB" offset="0%"></stop>
            <stop stop-color="#01066E" offset="100%"></stop>
        </linearGradient>
        <linearGradient x1="30.961607%" y1="46.0576955%" x2="66.775636%" y2="70.5963132%" id="linearGradient-6">
            <stop stop-color="#9FD6FF" offset="0%"></stop>
            <stop stop-color="#D4E8F9" offset="100%"></stop>
        </linearGradient>
    </defs>
    <g id="Page-1" stroke="none" stroke-width="1" fill="none" fill-rule="evenodd">
        <g id="Group-6-Copy" fill-rule="nonzero">
            <path d="M19.1254918,68.5714286 L17.2131148,80 L9.76996262e-14,80 L1.91237705,68.5714286 L5.73770492,45.7142857 L22.9508197,45.7142857 L19.1254918,68.5714286 Z" id="Combined-Shape" fill="url(#linearGradient-1)"></path>
            <polygon id="Path" fill="url(#linearGradient-2)" points="2.48689958e-13 22.8571429 2.48689958e-13 51.4285714 34.4262295 51.4285714 34.4262295 22.8571429"></polygon>
            <polygon id="Path" fill="url(#linearGradient-3)" points="80.7103825 29.3714286 80.7103825 44.9142857 67.0927049 49.3714286 67.0927049 24.9142857"></polygon>
            <path d="M86.4480874,34.2857143 L97.9234973,34.2857143 L97.9234973,40 L86.4480874,40 L86.4480874,34.2857143 Z M93.8663776,16.9383748 L97.923103,20.9785421 L89.8069474,29.0615706 L85.750222,25.0214032 L93.8663776,16.9383748 Z M89.8070444,45.2222007 L97.9232,53.3052291 L93.8664745,57.3453965 L85.7503189,49.2623681 L89.8070444,45.2222007 Z" id="Combined-Shape" fill="url(#linearGradient-4)"></path>
            <rect id="Rectangle" fill="url(#linearGradient-5)" x="8.60655738" y="34.2857143" width="11.4754098" height="5.71428571"></rect>
            <polygon id="Path" fill="url(#linearGradient-6)" points="69.0437158 4.26325641e-14 69.0437158 74.2857143 28.6885246 51.4285714 28.6885246 22.8571429"></polygon>
        </g>
    </g>
</svg>