<?xml version="1.0" encoding="UTF-8"?>
<svg width="100px" height="100px" viewBox="0 0 100 100" version="1.1" xmlns="http://www.w3.org/2000/svg" xmlns:xlink="http://www.w3.org/1999/xlink">
    <!-- Generator: Sketch 53 (72520) - https://sketchapp.com -->
    <title>Group 13 Copy</title>
    <desc>Created with Sketch.</desc>
    <defs>
        <linearGradient x1="30.7894513%" y1="0%" x2="50%" y2="100%" id="linearGradient-1">
            <stop stop-color="#2072FF" offset="0%"></stop>
            <stop stop-color="#0451E5" offset="100%"></stop>
        </linearGradient>
        <linearGradient x1="100%" y1="118.786444%" x2="2.36468689%" y2="37.1015453%" id="linearGradient-2">
            <stop stop-color="#9FD6FF" offset="0%"></stop>
            <stop stop-color="#D4E8F9" offset="100%"></stop>
        </linearGradient>
        <linearGradient x1="0%" y1="0.00127923631%" x2="100%" y2="99.9987208%" id="linearGradient-3">
            <stop stop-color="#FF5D05" offset="0%"></stop>
            <stop stop-color="#FF2327" offset="100%"></stop>
        </linearGradient>
    </defs>
    <g id="Page-1" stroke="none" stroke-width="1" fill="none" fill-rule="evenodd">
        <g id="Group-13-Copy" fill-rule="nonzero">
            <path d="M99.8052615,51.0471902 C99.8052615,77.9751873 77.9751873,99.8052615 51.0471902,99.8052615 C24.1184315,99.8052615 2.28835724,77.9751873 2.28835724,51.0471902 C2.28835724,24.1184315 24.1184315,2.28835724 51.0471902,2.28835724 C77.9751873,2.28835724 99.8052615,24.1184315 99.8052615,51.0471902 L99.8052615,51.0471902 Z" id="Path" fill="url(#linearGradient-1)"></path>
            <path d="M51.0471902,87.5649167 C30.9113471,87.5649167 14.5294635,71.1830333 14.5294635,51.0464288 C14.5294635,30.9105855 30.9105855,14.5294635 51.0471902,14.5294635 C71.1830333,14.5294635 87.5649167,30.9105855 87.5649167,51.0471902 C87.5649167,71.1830333 71.1830333,87.5649167 51.0471902,87.5649167 Z" id="Path" fill="url(#linearGradient-2)"></path>
            <path d="M51.0471902,75.3238105 C37.6600982,75.3238105 26.7698083,64.4335206 26.7698083,51.0471902 C26.7698083,37.6600982 37.6608598,26.7698083 51.0471902,26.7698083 C64.4335206,26.7698083 75.3238105,37.6608598 75.3238105,51.0471902 C75.3238105,64.4335206 64.4335206,75.3238105 51.0471902,75.3238105 Z" id="Path" fill="url(#linearGradient-1)"></path>
            <path d="M51.0471902,63.0834658 C44.4103724,63.0834658 39.0101531,57.6840079 39.0101531,51.0464288 C39.0101531,44.4096108 44.4096108,39.0101531 51.0471902,39.0101531 C57.6840079,39.0101531 63.0834658,44.4096108 63.0834658,51.0464288 C63.0834658,57.6840079 57.6840079,63.0834658 51.0471902,63.0834658 L51.0471902,63.0834658 Z" id="Path" fill="#01066E"></path>
            <path d="M23.8532027,18.804534 L51.0471902,45.9980003 C52.4414093,47.3922194 52.4414093,49.6529711 51.0464288,51.0464288 C49.6529711,52.4406477 47.3922194,52.4406477 45.9980003,51.0464288 L18.8043108,23.8527391 L18.8050179,23.8542077 L10.7420001,25.358076 C9.92953054,25.5096048 9.09345607,25.250711 8.50866075,24.6659157 L0.735756268,16.8930112 C-0.594500847,15.5619927 -0.040925213,13.2951494 1.75305646,12.7278676 L6.25552352,11.3039518 L11.3039518,6.25552352 L12.7278676,1.75305646 C13.2951494,-0.040925213 15.5619927,-0.594500847 16.8930112,0.735756268 L24.6659157,8.50866075 C25.250711,9.09345607 25.5096048,9.92953054 25.358076,10.7420001 L23.8542077,18.8050179 L23.8532027,18.804534 Z" id="Combined-Shape" fill="url(#linearGradient-3)"></path>
        </g>
    </g>
</svg>