<?xml version="1.0" encoding="UTF-8"?>
<svg width="60px" height="60px" viewBox="0 0 60 60" version="1.1" xmlns="http://www.w3.org/2000/svg" xmlns:xlink="http://www.w3.org/1999/xlink">
    <!-- Generator: Sketch 53 (72520) - https://sketchapp.com -->
    <title>Group 3 Copy</title>
    <desc>Created with Sketch.</desc>
    <defs>
        <linearGradient x1="30.7894513%" y1="24.8839537%" x2="50%" y2="75.1160463%" id="linearGradient-1">
            <stop stop-color="#2072FF" offset="0%"></stop>
            <stop stop-color="#0451E5" offset="100%"></stop>
        </linearGradient>
        <linearGradient x1="71.5458417%" y1="220.774133%" x2="2.36468689%" y2="37.1015453%" id="linearGradient-2">
            <stop stop-color="#9FD6FF" offset="0%"></stop>
            <stop stop-color="#D4E8F9" offset="100%"></stop>
        </linearGradient>
        <linearGradient x1="0%" y1="0%" x2="100%" y2="100%" id="linearGradient-3">
            <stop stop-color="#FF5D05" offset="0%"></stop>
            <stop stop-color="#FF2327" offset="100%"></stop>
        </linearGradient>
    </defs>
    <g id="Page-1" stroke="none" stroke-width="1" fill="none" fill-rule="evenodd">
        <g id="Group-3-Copy" transform="translate(0.000000, 0.000000)" fill-rule="nonzero">
            <path d="M30,43.6207581 L20.5014038,43.6207581 L20.1164245,42.3866272 C19.8051452,41.3896179 19.6472168,40.3504944 19.6472168,39.2985534 C19.6472168,33.5902405 24.2912292,28.9457702 30,28.9457702 C35.7087708,28.9457702 40.3527832,33.5902405 40.3527832,39.2985534 C40.3527832,40.3504944 40.1948548,41.3896179 39.8835755,42.3866272 L39.4985963,43.6207581 L30,43.6207581 Z" id="Combined-Shape" fill="url(#linearGradient-1)"></path>
            <path d="M30,33.6616516 C25.235138,33.6616516 21.3587952,29.7853089 21.3587952,25.0204467 C21.3587952,20.2560424 25.235138,16.3792419 30,16.3792419 C34.764862,16.3792419 38.6412048,20.2560424 38.6412048,25.0209046 C38.6412048,29.7853089 34.764862,33.6616516 30,33.6616516 Z" id="Combined-Shape" fill="url(#linearGradient-2)"></path>
            <path d="M30,60 L28.2421875,60 L28.2421875,55.4470826 C22.0907592,55.031433 16.3641357,52.4377441 11.9631959,48.0368041 C7.56225586,43.6354065 4.96856695,37.9092408 4.55291742,31.7578125 L0,31.7578125 L0,28.2421875 L4.55291742,28.2421875 C4.96856695,22.0907592 7.56225586,16.3641357 11.9631959,11.9631959 C16.3641357,7.56225586 22.0907592,4.96856695 28.2421875,4.55291742 L28.2421875,0 L30,0 L31.7578125,0 L31.7578125,4.55291742 C37.9092408,4.96856695 43.6358643,7.56225586 48.0368041,11.9631959 C52.4377441,16.3641357 55.031433,22.0907592 55.4470826,28.2421875 L60,28.2421875 L60,31.7578125 L55.4470826,31.7578125 C55.031433,37.9092408 52.4377441,43.6354065 48.0368041,48.0368041 C43.6358643,52.4377441 37.9092408,55.031433 31.7578125,55.4470826 L31.7578125,60 L30,60 Z M30,47.4998474 L31.7578125,47.4998474 L31.7578125,51.9218445 C42.4855042,51.0694886 51.0694886,42.4855042 51.9218445,31.7578125 L47.4998474,31.7578125 L47.4998474,28.2421875 L51.9218445,28.2421875 C51.0694886,17.5144958 42.4855042,8.93051145 31.7578125,8.07815555 L31.7578125,12.4996948 L30,12.4996948 L28.2421875,12.4996948 L28.2421875,8.07815555 C17.5144958,8.93051145 8.93051145,17.5144958 8.07815555,28.2421875 L12.5001526,28.2421875 L12.5001526,31.7578125 L8.07815555,31.7578125 C8.93051145,42.4855042 17.5144958,51.0694886 28.2421875,51.9218445 L28.2421875,47.4998474 L30,47.4998474 Z" id="Combined-Shape" fill="url(#linearGradient-3)"></path>
        </g>
    </g>
</svg>